<svg xmlns="http://www.w3.org/2000/svg" viewBox="0 0 64 64">
  <!-- Background circle with gradient -->
  <defs>
    <linearGradient id="bgGradient" x1="0%" y1="0%" x2="100%" y2="100%">
      <stop offset="0%" style="stop-color:#27ae60;stop-opacity:1" />
      <stop offset="100%" style="stop-color:#229954;stop-opacity:1" />
    </linearGradient>
  </defs>
  <circle cx="32" cy="32" r="30" fill="url(#bgGradient)" stroke="#1e8449" stroke-width="1.5"/>
  
  <!-- Two hands connecting/supporting (simplified, clean design) -->
  <!-- Left hand (simplified) -->
  <path d="M 18 30 Q 16 26 18 22 Q 20 20 22 22 Q 22 24 20 26 L 18 30 Z" fill="#ffffff" opacity="0.95"/>
  <path d="M 18 30 L 16 34 L 18 38 Q 20 40 22 38 L 22 34 Z" fill="#ffffff" opacity="0.95"/>
  
  <!-- Right hand (simplified) -->
  <path d="M 46 30 Q 48 26 46 22 Q 44 20 42 22 Q 42 24 44 26 L 46 30 Z" fill="#ffffff" opacity="0.95"/>
  <path d="M 46 30 L 48 34 L 46 38 Q 44 40 42 38 L 42 34 Z" fill="#ffffff" opacity="0.95"/>
  
  <!-- Connection arc between hands (representing peer support connection) -->
  <path d="M 22 34 Q 32 32 42 34" stroke="#ffffff" stroke-width="3" fill="none" stroke-linecap="round" opacity="0.9"/>
  
  <!-- Heart symbol in center (representing care and compassion) -->
  <path d="M 32 38 Q 30.5 36.5 29 36.5 Q 27 36.5 27 38.5 Q 27 40 29 42 Q 30.5 43.5 32 45 Q 33.5 43.5 35 42 Q 37 40 37 38.5 Q 37 36.5 35 36.5 Q 33.5 36.5 32 38 Z" fill="#ffffff" opacity="0.85"/>
</svg>
